<svg xmlns="http://www.w3.org/2000/svg" viewBox="0 0 100 125" x="0px" y="0px"><title>Artboard 6</title><path d="M91.9,61.37l-14-42a2,2,0,0,0-1.33-1.29l-37-11a2,2,0,0,0-2,.51l-31,31a2,2,0,0,0-.48,2.06l15,44A2,2,0,0,0,22.73,86l36,5L59,91a2,2,0,0,0,1.31-.49l31-27A2,2,0,0,0,91.9,61.37ZM24.44,82,31.6,47.05l33.08,34ZM77.26,31.69,32.33,43.61l7.06-31.75Zm-47,12.12L11.16,39.66,36.88,14ZM66.38,79.92,32.91,45.53,78.38,33.46l.12.35-12,46ZM77,29.29l-30.52-16,28,8.31ZM10.66,41.6l19.16,4.17L23.16,78.26ZM58.37,86.89,35.5,83.72l27.23-.62Zm10.85-9.44L79.66,37.29l8,24.08ZM41.64,35.5a7,7,0,0,1,1.85-3.82,16.93,16.93,0,0,0,1.84-2.58A2.44,2.44,0,0,0,45.4,27a2.67,2.67,0,0,0-1.13-1.28,2.34,2.34,0,0,0-1.74-.21c-.9.2-1.38.64-1.46,1.31a4.35,4.35,0,0,0,.36,1.74l-3,.7a6,6,0,0,1-.42-3c.26-1.51,1.4-2.47,3.4-2.91a6.62,6.62,0,0,1,4.21.31,5.27,5.27,0,0,1,2.73,2.71,3.82,3.82,0,0,1,.21,2.86,7.46,7.46,0,0,1-1.35,2.28l-.85,1.08q-.81,1-1.08,1.47A2.81,2.81,0,0,0,45,35l6.62-1.74,1.11,2.45L42.09,38.6A6.75,6.75,0,0,1,41.64,35.5ZM56.57,21.81A13,13,0,0,1,60,26.36a10.48,10.48,0,0,1,1.47,5.28c-.1,1.4-1.06,2.36-2.87,2.85a5.11,5.11,0,0,1-4.76-.82,13,13,0,0,1-3.53-4.93,9.78,9.78,0,0,1-1.2-5.25c.2-1.3,1.19-2.14,3-2.53A5.18,5.18,0,0,1,56.57,21.81Zm-1.26,9.66a2.13,2.13,0,0,0,2.25.81,1.29,1.29,0,0,0,1-1.66,13.72,13.72,0,0,0-1.33-3.57,15,15,0,0,0-2.06-3.34A2.09,2.09,0,0,0,53.07,23,1.24,1.24,0,0,0,52,24.46,12.67,12.67,0,0,0,53.23,28,15.33,15.33,0,0,0,55.31,31.47Z"/><text x="0" y="115" fill="#000000" font-size="5px" font-weight="bold" font-family="'Helvetica Neue', Helvetica, Arial-Unicode, Arial, Sans-serif">Created by Lonnie Tapscott</text><text x="0" y="120" fill="#000000" font-size="5px" font-weight="bold" font-family="'Helvetica Neue', Helvetica, Arial-Unicode, Arial, Sans-serif">from the Noun Project</text></svg>